<?xml version="1.0" standalone="no"?>
<!DOCTYPE svg PUBLIC "-//W3C//DTD SVG 20010904//EN"
 "http://www.w3.org/TR/2001/REC-SVG-20010904/DTD/svg10.dtd">
<svg version="1.0" xmlns="http://www.w3.org/2000/svg"
 width="512.000000pt" height="512.000000pt" viewBox="0 0 512.000000 512.000000"
 preserveAspectRatio="xMidYMid meet">

<g transform="translate(0.000000,512.000000) scale(0.100000,-0.100000)"
fill="#000000" stroke="none">
<path d="M2310 3730 c-422 -80 -746 -238 -993 -486 -264 -265 -420 -621 -458
-1045 -28 -321 54 -567 255 -763 355 -345 935 -312 1250 70 210 255 254 612
110 911 -72 152 -208 296 -356 381 -78 45 -221 90 -310 98 -43 4 -78 11 -78
16 0 5 12 32 26 61 95 188 381 429 692 586 44 22 88 51 96 63 23 33 20 75 -9
103 -30 31 -84 32 -225 5z"/>
<path d="M4260 3743 c-737 -116 -1231 -497 -1435 -1106 -59 -177 -95 -392 -95
-569 1 -524 423 -915 939 -867 193 18 377 105 516 245 341 344 334 886 -16
1220 -144 136 -308 213 -491 231 -38 3 -68 10 -68 15 0 21 34 85 76 144 122
172 347 349 644 506 90 48 117 79 106 124 -12 46 -41 64 -98 63 -29 -1 -64 -4
-78 -6z"/>
</g>
</svg>
